<?xml version="1.0" encoding="utf-8"?>
<!-- Generator: Adobe Illustrator 24.2.0, SVG Export Plug-In . SVG Version: 6.00 Build 0)  -->
<svg version="1.1" id="Layer_1" xmlns="http://www.w3.org/2000/svg" xmlns:xlink="http://www.w3.org/1999/xlink" x="0px" y="0px"
	 viewBox="0 0 170.9 147.8" style="enable-background:new 0 0 170.9 147.8;" xml:space="preserve">
<style type="text/css">
	.st0{fill:rgba(245, 16, 49,1);}
	.st1{fill:rgba(12, 144, 225, 1);}
	.st2{fill:#fff;} 
</style>
<g>
	<path class="st0" d="M30.5,27.5c-0.2-1.7-0.3-3,2.1-2.7c4.5,0.6,9.1,1.2,13.6,1.7c0.7,0.1,5.1-0.3,5.4,0.5
		C45.8,27.4,36.4,27.8,30.5,27.5z"/>
	<path class="st0" d="M137.9,21.2c4.7,0.1,4.7,0,4.8,4.3c0,1.3,0,2.6,0,3.8c0,14.4,0,28.8-0.1,43.2c0,0.5-2.3,23-3.5,33.1
		c-0.7,6.5-1.8,12.9-2.6,19.4c-1.9,0-3.8,0-5.7,0c-0.1-2.1-0.3-4.2,0.6-6.1c0.5,0,1-0.1,1.4,0c3,0.5,3.6-0.7,3.6-3.6
		c-0.2-10.9-0.1-21.7-0.1-32.6c0-1,0-5.4,0.1-6.6c0.1-7.6,0-33.3-0.1-37.7c0.2-1.2,0.2-2.3,0-3.5c0-1.7,0-3.4,0.1-5.1
		c0-1-0.3-1.6-1.4-1.7c-2-0.1-4.1-0.5-6.1-0.5c-15.8,0-31.5,0-47.3,0.1c-7-0.8-14.1-1.6-21.1-2.4c-7-0.9-14-1.8-21-2.7
		c-0.5-0.1-9,0.1-8.5-1.4c2.2-0.1,11.6,0.2,13.8,0.2C54.4,21.4,127.4,21.1,137.9,21.2z"/>
	<path class="st0" d="M53.8,124.5c-10.9,0-21.7,0-32.6,0.1c-3.5,0.1-2.5-2.4-2.9-4.2c0.3-1.3,0.2-2.6,0-4c0-14.7,0-29.5,0-44.2
		c0-0.4-0.2-0.9-0.3-1.3c0.2-2.1,0.1-4.3,0.5-6.4c1.8-9.6,2.4-19.4,3.9-29.1c0.7-4.8,0.7-9.7,2.2-14.3c1.9,0,3.7,0,5.6,0
		C30.1,23,31,25,29.8,26.8c-0.6,0-1.1,0.2-1.7,0.1c-2.9-0.6-3.5,0.7-3.5,3.5c0.2,10.7,0.1,21.4,0.1,32.1c0,1.1-0.2,2.3,0.4,3.3
		c-0.1,0.5-0.2,0.9-0.3,1.4c-1.7,13.6-3.4,27.1-5.2,40.7c-0.2,1.9,0.1,3.1,2.4,3c0.9-0.1,1.9-0.1,2.7,0.6c0,1.4,0.1,2.8,0,4.2
		c-0.2,1.9,0.3,2.6,2.4,2.6c1.5,0,3.1-0.1,4.6-0.1c14.6,0,29.3,0,43.9,0c1,0,2.1,0.1,3-0.3c13.6,1.7,27.1,3.3,40.7,5.1
		c1.5,0.2,3.4-0.3,4.6,1.3c-0.9,0.1-1.9,0.2-2.8,0.2c-11.5,0-23.1,0-34.6,0.1c-1,0-2.1-0.2-3,0.3c-1.2-0.1-2.4-0.3-3.6-0.3
		C71.3,124.4,62.6,124.4,53.8,124.5z"/>
	<path class="st2" d="M50.5,125.3c8.8,0,17.5,0,26.3,0c1.2,0,2.4,0.2,3.6,0.3c1.5,0.4,29.6,4.1,35.3,4.5c3.3,0.2,6.8,1.4,10,1.5
		c4.1,0.1,8.1,1.1,12.1,1.3c2.2,0.1,3.4,0.3,3.5-2.4c0.1-1.8,0.5-3.5,0.4-5.3c0.9-6.5,1.9-12.9,2.6-19.4c1.2-10.2,2.2-20.4,3.9-30.5
		c0.1-0.5,0-0.9,0-1.4c1.2-6.3,1.7-12.6,2.3-18.9c0.7-6.8,1.8-13.6,2.5-20.4c0.5-5,0.9-4.9-4-5.2c-0.4,0-0.8,0-1.1,0
		c0-1.3,0-2.6,0-3.8c2.7,0.3,5.4,0.8,8.1,0.9c1.6,0.1,1.7,0.6,1.6,2.1c-2.1,16.7-4.2,33.5-6.3,50.2c-0.9,7.4-1.8,14.8-2.9,22.1
		c-1,7.2-3.8,31.2-3.9,34c-0.1,1.9-0.8,2.4-2.6,2.2c-6.4-0.9-12.8-1.6-19.2-2.4c-11.3-1.4-53.9-6.7-63.9-8
		C56,126.3,53.2,126.3,50.5,125.3z"/>
	<path class="st2" d="M19.2,36.3c-1.5,9.7-2.1,19.5-3.9,29.1c-0.4,2.1-0.4,4.3-0.5,6.4c-0.4,3.3-0.8,6.7-1.2,10
		c-1.2,9.7-2.3,19.4-3.6,29.1c-0.9,6.2-1,6.2,5.1,6.4c0.2,1.3,0.3,2.6,0,4c-2.9-0.4-5.7-0.8-8.6-1.1c-1.2-0.1-1.3-0.7-1.2-1.7
		c1.5-9.1,2.3-18.3,3.5-27.5c0.9-6.7,1.5-13.5,2.5-20.3c0.6-4.5,1-9,2-13.4c0.7-3,0.3-6.5,0.8-9.7c1.4-8,4.4-33.2,4.5-36.4
		c0-1.3,0.8-1.8,2.1-1.6c12.7,2.2,25.6,3.1,38.3,4.8c6.2,0.9,12.4,1.8,18.6,2.4c8.2,0.9,16.4,1.8,24.6,3.3c3,0.5,6.3,0.4,9.4,0.8
		c-0.4,0.4-1,0.5-1.6,0.4c-9.3-0.3-18.6,0.4-27.9-0.5c-3.5-0.4-7-0.8-10.5-1.2c-8.3-1-16.7-2.1-25-3.2c-7.7-1-15.4-1.9-23.1-2.9
		c-0.8-0.1-1.4-0.3-1.6,0.9C21.6,17,19.9,31.5,19.2,36.3z"/>
	<path class="st0" d="M32.6,8.3c-2.3-0.2-4.2-0.4-4.2-2.8c0-1.5,1.2-3,2.7-2.4c1.4,0.5,3.8,0,3.9,2.5C35.1,7.5,33.8,8.2,32.6,8.3z"
		/>
	<path class="st0" d="M49,5.1c1.2,0.1,2.8,0.6,2.9,2.6c0,2-1.3,2.6-3.2,2.6c-1.9,0-3.4-0.6-3.5-2.7C45.2,5.5,46.8,5.1,49,5.1z"/>
	<path class="st0" d="M41,9.4c-2.1-0.3-4.1-0.3-4.2-2.7c-0.1-1.6,1-2.8,2.6-2.6c1.6,0.3,3.9,0.2,4,2.7C43.5,8.5,42.2,9.2,41,9.4z"/>
	<path class="st0" d="M150.3,108.7c-0.8-2.5,1.2-2.4,2.7-2.7c1.7-0.3,2.5,0.9,2.4,2.3c-0.1,1.7-0.1,3.8-2.6,3.9
		C150.3,112.4,150.1,110.7,150.3,108.7z"/>
	<path class="st0" d="M57.4,11.3c-2-0.2-3.9-0.6-3.8-2.9c0.1-2.9,2.8-1.5,4.3-2c1.4-0.5,2.4,0.9,2.4,2.3
		C60.2,10.4,59.1,11.3,57.4,11.3z"/>
	<path class="st0" d="M23.5,7.4c-1.6-0.4-3.3-0.3-3.3-2.8c0-3.6,2.8-1.5,4.2-2.1c1.2-0.6,2.2,0.9,2.1,2.5
		C26.4,6.8,25.1,7.3,23.5,7.4z"/>
	<path class="st0" d="M152.4,133.7c-0.1,2.4-0.6,4-2.9,3.9c-1.9-0.2-2.3-1.5-2.3-3.2c0-2.4,1.6-3,3.5-3
		C152.5,131.4,152.4,133,152.4,133.7z"/>
	<path class="st0" d="M153.8,98c1.6-0.2,2.7,0.2,2.6,2.3c-0.2,2.1-0.6,3.6-3.2,3.5c-2,0-2.1-1.4-2-2.6
		C151.3,99.7,150.9,97.6,153.8,98z"/>
	<path class="st0" d="M148.3,125.8c-0.4-2.1,1.3-3,2.9-3c1.8-0.1,2.3,1.5,2.2,3.2c-0.1,1.7-0.5,3.2-2.7,3.2
		C148.6,129.2,148.1,127.7,148.3,125.8z"/>
	<path class="st0" d="M149.4,117.4c-0.4-2.3,1.3-3,3.1-3c1.5,0,2.1,1.3,2,2.8c-0.2,1.9-0.5,3.7-2.9,3.5
		C149.6,120.6,149.2,119.2,149.4,117.4z"/>
	<path class="st1" d="M82,11.7c-0.8,1.5-2,2.8-3.6,3.6c-0.1,0-0.2,0-0.3,0c-0.9-0.1-1.2-0.8-1-1.4c0.7-1.5,1.7-3,3.3-3.6
		C81.2,10,81.8,10.7,82,11.7z"/>
	<path class="st1" d="M92.1,1.4c-0.8,1.5-2,2.9-3.6,3.6c-0.7,0.3-1.1-0.5-1.2-1.2C87.2,2.9,90-0.1,90.9,0C91.7,0.1,92,0.6,92.1,1.4z
		"/>
	<path class="st1" d="M92.1,14c-0.1,0.9-0.7,1.6-1.5,1.2c-1.6-0.7-2.8-2-3.3-3.7c-0.2-0.5-0.1-1.4,1-1.3
		C89.2,10.3,92.1,13.1,92.1,14z"/>
	<path class="st1" d="M81.9,3.6C81.8,4.3,81.7,5,81,5c-2,0-2.6-1.9-3.7-3c-0.5-0.5-0.3-1.3,0.3-1.7c0.8-0.7,1.4-0.2,1.9,0.4
		C80.3,1.7,81.6,2.3,81.9,3.6z"/>
	<path class="st1" d="M10.6,43.5c-0.6,1.1-1.4,2.1-2.6,2.6c-0.5,0.2-1-0.5-0.9-0.8c0.4-1.3,1.3-2.2,2.5-2.6
		C10,42.5,10.4,42.9,10.6,43.5z"/>
	<path class="st1" d="M9.4,53.3c-1-0.6-2-1.4-2.4-2.7c-0.1-0.4,0.4-1,0.8-0.9c1.3,0.4,2.2,1.4,2.6,2.6C10.7,52.8,10.1,53.1,9.4,53.3
		z"/>
	<path class="st1" d="M12.2,130.7c-0.9-0.7-2-1.4-2.4-2.6c-0.1-0.5,0.6-0.8,1-0.6c1.2,0.3,2.2,1.1,2.4,2.4
		C13.3,130.3,12.9,130.8,12.2,130.7z"/>
	<path class="st1" d="M10.9,137.9c-0.6,0-1.2-0.4-1.1-0.8c0.3-1.3,1.3-2.1,2.5-2.6c0.5-0.2,1,0.4,0.9,0.7
		C12.9,136.5,11.9,137.3,10.9,137.9z"/>
	<path class="st1" d="M20.4,136.9c-0.1,0.7-0.6,1.2-0.9,1c-1.1-0.5-2.1-1.3-2.5-2.5c-0.2-0.5,0.5-1.2,1-0.9
		C19.2,134.9,20,135.8,20.4,136.9z"/>
	<path class="st1" d="M163.6,37.6c-0.4,1.1-1.3,1.9-2.4,2.4c-0.6,0.3-1.2-0.4-1-0.9c0.4-1.2,1.3-2.1,2.5-2.4
		C163.3,36.5,163.6,36.9,163.6,37.6z"/>
	<path class="st1" d="M1.3,42.8c0.7,0.7,1.7,1.2,2,2.4c0.1,0.4-0.5,0.9-0.9,0.8c-1.1-0.4-2-1.2-2.3-2.2C-0.1,43.3,0.5,42.9,1.3,42.8
		z"/>
	<path class="st1" d="M168.4,36.6c1.1,0.5,2,1.3,2.4,2.5c0.2,0.5-0.3,1-0.7,0.9c-1.4-0.3-2.2-1.2-2.6-2.5
		C167.3,37,167.6,36.7,168.4,36.6z"/>
	<path class="st1" d="M168.5,32.8c-0.7,0-1.1-0.2-1.1-0.8c0.2-1.3,1.2-2.1,2.3-2.6c0.6-0.3,1.2,0.3,1,0.9
		C170.4,31.5,169.4,32.2,168.5,32.8z"/>
	<path class="st1" d="M161.2,29.3c0.9,0.6,2,1.3,2.4,2.5c0.2,0.5-0.2,1-0.7,0.9c-1.4-0.3-2.2-1.3-2.7-2.6
		C160.1,29.8,160.6,29.4,161.2,29.3z"/>
	<path class="st1" d="M125.8,139.5c0.1,0.8-0.4,1.3-0.7,1.2c-1.3-0.4-2.2-1.3-2.6-2.6c-0.1-0.4,0.5-0.9,0.9-0.8
		C124.5,137.6,125.4,138.5,125.8,139.5z"/>
	<path class="st1" d="M133.1,138.3c-0.6,0.9-1.3,1.9-2.5,2.3c-0.5,0.2-1-0.2-0.9-0.7c0.3-1.4,1.4-2.1,2.6-2.7
		C132.6,137,133.1,137.5,133.1,138.3z"/>
	<path class="st1" d="M124.5,144.3c1,0,1.5,0.4,1.3,1.1c-0.4,1.2-1.3,2-2.5,2.4c-0.5,0.2-1.1-0.3-0.8-1
		C122.9,145.6,123.6,144.7,124.5,144.3z"/>
	<path class="st1" d="M132.2,147.8c-1.1-0.4-1.9-1.2-2.5-2.3c-0.3-0.6,0.3-1.2,0.9-1.1c1.2,0.4,2,1.3,2.5,2.5
		C133.3,147.4,132.9,147.7,132.2,147.8z"/>
	<path class="st1" d="M18.1,130.8c-0.8-0.2-1.4-0.6-1.1-1.2c0.5-1.1,1.3-2.1,2.6-2.3c0.5-0.1,0.9,0.4,0.8,0.9
		C20.1,129.5,18.9,130,18.1,130.8z"/>
	<path class="st1" d="M0.7,52.7c-0.1-0.2-0.7-0.9-0.6-1.1c0.5-0.8,1.2-1.7,2.2-1.9c0.5-0.1,1.2,0.4,0.9,1
		C2.9,51.9,1.9,52.5,0.7,52.7z"/>
	<path class="st1" d="M141.4,38.4c-18.6-2.3-37.3-4.6-55.9-6.9c-11.9-1.5-48.2-6.1-52.7-6.7c-2.4-0.3-3.4,10.4-3.9,14.3
		C27.1,52,25.5,64.9,24,77.9c-1,9-2.7,18-2.8,27.1c0,2.3,0.5,3.5,3,3.8c4.6,0.5,9.1,1.9,13.7,2.1c6.1,0.2,12.1,1.3,18.1,1.9
		c4.2,0.5,8.4,1.3,12.6,1.6c7.2,0.5,14.3,1.5,21.4,2.3c7.2,0.9,14.4,2.3,21.7,2.4c1.6,0.6,3.2,0.7,4.9,1c4,0.6,8.1,0.5,12,2
		c2,0.8,3.7-0.8,3.7-3.1c1.1-3.9,1.2-7.9,1.7-11.9c1.1-8.4,2-16.8,3.1-25.1c1.3-10.2,2.5-20.4,3.8-30.6c0.9,0.5,0.6,1.3,0.6,2
		c0,7.6,0,15.1-0.1,22.7c0,1.2-0.2,2.4-0.4,3.6c-0.9,7.6-2,15.2-2.8,22.8c-0.6,5.5-2.6,20.5-2.4,22.5c-0.6,1-1.5,0.9-2.4,0.8
		c-4.2-0.5-15.9-2-17.4-2.2c-13.6-1.8-27.1-3.4-40.7-5.1c-5.3-0.6-10.6-1.2-15.9-1.9c-7-0.9-14.1-1.8-21.1-2.7
		c-5.6-0.7-11.3-1.2-17-1.8c-0.8-0.7-1.8-0.6-2.7-0.6c-2.3,0.1-2.6-1.1-2.4-3c1.7-13.6,3.5-27.1,5.2-40.7c0.1-0.5,0.2-0.9,0.3-1.4
		c0.1-1.3,0.1-2.6,0.3-3.9C23.5,51,26.8,23.9,27,22c1.1-1.1,2.4-1.4,3.8-1.1c4.2,1,27.8,3.5,34.8,4.4c7,0.9,33.3,4.4,39,4.8
		c7,0.5,13.9,1.6,20.8,2.6c5.3,0.7,10.7,1.5,16,2.2C141.6,36.1,141.6,37.3,141.4,38.4z"/>
	<path class="st2" d="M112.2,77.6c-4.8-3.4-10.1-5.9-15.2-8.8c-4-2.3-4.1-2.2-4.4-5.9c-1.6,3.6-3.1,7.2-4.7,10.8
		c-3,7.2-6,14.5-9.1,21.7c-0.3,0.6-0.3,1.5-1.1,1.9c0.5-6.5,3.4-12.5,4.6-18.8c0.6-3.3,2.5-6.3,3.2-9.6c1.8-2.2,2.7-4.8,3.6-7.4
		c1.4-4.3,4-8.3,5.1-12.9c-1.2-0.2-2.3-0.8-3.5-0.4c-1.6-0.5-1.9,0.7-2.3,1.8c-1.3,3.3-2.5,6.7-4,9.9c-2.3,4.9-4.2,9.9-6.2,14.9
		c-0.5,0.4-0.5,0.9-0.5,1.5l0-0.1c-2.9,6.7-5.7,13.3-8.5,20c-0.3,0.7-1.1,1.3-0.1,2.2c0.8,0.7,1.6,1,2.6,0.4c-0.1,0.9,0,1.7,1.2,1.6
		c1.3-0.1,2.6-0.1,3.8-0.1c-0.4,2.1-1.5,2.9-3.7,2.5c-3.2-0.6-6.5-0.9-10-1.4c0.8-2,1.4-4,2.4-5.9c0.8-1.6,0.3-2.3-1-3.1
		c-4.4-2.5-8.7-5.1-13-7.6c-0.3-0.2-0.7-0.2-0.6-0.7c1.2,0.1,2.3,0,3.5,0.6c3.2,1.6,6.5,3.1,9.9,4.5c1,0.4,2.3,1.9,3.1,0.5
		c0.7-1.3,0.6-3.1-0.2-4.6c-0.2-0.4-0.8-0.7-1.2-1.1c0.3-1.3-1-1.5-1.7-1.9c-4.3-2.5-8.6-5.1-13.1-7.4c-2.1-1.1-4-2.7-6.5-3.1
		c-0.6-1.3-2.1-1.7-3.1-2.7c2.1-2,4.7-2.8,7.4-3.4c0.5,1,1.5,0.8,2.2,0.5c3-1.3,6.3-1.4,9.3-2.8c2.1-0.9,4.8-0.1,6.3-2.4
		c4.8,0.2,0.1-4.1,2.7-4.9c-1.1,0-1.9,0.2-2.7,0.5c-8.7,2.5-17.4,5.1-26.1,7.4c-5.2,1.4-5.3,1.3-5.8,6.6c0,0.1,0,0.2,0.1,0.3
		c-0.1,1.4-0.3,2.8-0.4,4.2c-3.5-1-3.2-4.1-3.3-6.7c0-1.4,0.2-3,0.6-4.4c0.7-2.8,3.7-2.5,5.6-3.1c3.6-1.2,7.5-1.7,11.2-3
		c1.7-0.6,3.6-1,5.4-1.3c5.8-1.1,11-4.1,17-4.5c0.4,0,0.8-0.7,1.3-0.9c1-0.4,1.8-0.4,1.5,1.2c-0.4,2.2-0.5,4.5-0.8,6.7
		c-0.6,4.8-1.2,5.4-5.9,6.6c-4.2,1.1-8.4,2.3-12.7,3.5c-0.8,0.2-1.9,0.3-2,1.2c-0.1,1,1,1.4,1.7,1.8c4.6,2.6,9.3,5.3,14,7.9
		c1.8,1,2.8,2,1.6,4.1c1,0.5,0.9-0.4,1.1-0.8c5.3-12.5,10.5-24.9,15.7-37.4c0.6-1.3,1.2-2,2.6-1.6c3.1,0.8,6.2,1,9.3,1.1
		c1.4,0,1.5,0.7,1,1.8c-0.8,1.8-1.5,3.6-2.3,5.4c-0.7,1.5-0.4,2.1,1.1,2.9c4.1,2.1,8.1,4.6,12.2,6.9c0.4,0.2,0.6,0.7,0.9,1
		c-4.7-0.4-8.1-4.5-13-4.3c-0.2,0-0.4-0.4-0.6-0.6c-1.1-1.2-1.5-0.4-2,0.6c-1.2,2.8,0.9,4,2.6,5.4c0.5,1.5,1.9,1.9,3,2.6
		c5.2,3.1,10.4,6.1,15.6,9.2C115.1,76.1,114,77.8,112.2,77.6z"/>
	<path class="st0" d="M112.2,77.6c1.8,0.1,2.9-1.5,4.6-1.7c1.6-0.6,3.5-0.9,4.7-2.5c-1.5-0.6-2.8-1.2-4.2-1.8
		c-6.3-2.8-12.8-5-19.2-7.5c-1.7-1.4-3.8-2.6-2.6-5.4c0.4-1,0.9-1.8,2-0.6c0.2,0.2,0.4,0.6,0.6,0.6c4.9-0.2,8.3,3.9,13,4.3
		c4.8,2.9,10.2,4.4,15.2,6.8c1.3,0.6,2.2,1.3,2.3,2.8c-1.1,1.3-0.1,3-0.6,4.4c-0.4,0-1-0.2-1.3,0c-9,3.8-18,7.7-27,11.6
		c-4.2,1.8-4.1,2-4.4-2.4c0.3-1.4,1.3-2,2.6-2.6c2.4-1.1,5.3-1.2,7-3.5C107.3,79.3,109.8,78.5,112.2,77.6z"/>
	<path class="st2" d="M127.9,77.1c0.5-1.4-0.5-3,0.6-4.4c3.1,1,3.2,3,3.2,6.2c-0.1,5.2-2.6,6.8-7,8C112.8,90,101.1,93.6,89.1,97
		c0.4-4.5,0.8-8.9,1.3-13.2c0.2-1.6,1.7-0.6,2.5-0.8c4-0.8,7.7-2.9,11.9-2.9c-1.7,2.3-4.6,2.4-7,3.5c-1.3,0.6-2.3,1.2-2.6,2.6
		c-2.9,1.1-1.1,3.6-1.9,5.7c4.1-1.2,7.7-2.3,11.3-3.3c5.6-1.6,11.2-3.5,16.9-4.7C126.2,83.1,127.9,81.8,127.9,77.1z"/>
	<path class="st0" d="M78.3,74.7c2-5,3.9-10,6.2-14.9c1.5-3.2,2.7-6.6,4-9.9c0.4-1,0.7-2.3,2.3-1.8c-0.4,3.7-1.9,7.1-2.7,10.7
		c-0.7,3.4-2.3,6.5-2.5,10c-0.7,3.3-2.6,6.3-3.2,9.6c-1.1,6.4-4,12.3-4.6,18.8c0,0,0-0.1,0-0.1c-0.7,0.4-0.5,1.1-0.6,1.8
		c0.1,0.4,0.1,0.9-0.4,1.1c-1.3,0-2.6,0.1-3.8,0.1c-1.2,0.1-1.3-0.7-1.2-1.6c1.5-5.3,3-10.5,4.3-15.8c0.6-2.2,1.6-4.4,1.7-6.8
		c0,0,0,0.1,0,0.1C78.5,75.9,78.1,75.1,78.3,74.7z"/>
	<path class="st0" d="M34.4,74.7c0.1-1.4,0.3-2.8,0.4-4.2c2.3-0.2,4.1-2.5,6.7-1.7c0.9,1,2.4,1.3,3.1,2.7c-0.2,0.7-0.9,0.9-1.4,1.3
		c-0.6,0.4-1.6,0.4-1.4,1.4c0.1,1,1.2,1.1,1.9,1.3c6.9,2.4,13.8,4.7,20.1,8.5c0.6,0.4,1.4,0.6,2,0c0.4,0.4,1,0.6,1.2,1.1
		c0.7,1.5,0.9,3.3,0.2,4.6c-0.8,1.4-2.1-0.1-3.1-0.5c-3.3-1.4-6.6-2.9-9.9-4.5C53.2,84,52,84.1,50.9,84c-5-2.3-9.8-5.2-15.1-6.9
		C34.7,76.7,34.1,76,34.4,74.7z"/>
	<path class="st0" d="M132.4,119c0.1,2.3-1.7,3.9-3.7,3.1c-3.9-1.5-8-1.4-12-2c-1.6-0.3-3.3-0.4-4.9-1
		C118.6,118.8,125.5,118.8,132.4,119z"/>
	<path class="st1" d="M77.2,99c0.1-0.6-0.1-1.3,0.6-1.8C77.9,97.9,77.8,98.6,77.2,99z"/>
	<path class="st0" d="M49.4,64.8c5.1-2.5,10.2-4.9,15.7-6.4c2.6-0.7,1.6,1.2,1.6,2.3c-1.5,2.3-4.2,1.5-6.3,2.4
		c-2.9,1.3-6.3,1.4-9.3,2.8c-0.7,0.3-1.7,0.5-2.2-0.5c0,0,0,0.1,0,0.1C49.1,65.2,49.3,65,49.4,64.8z"/>
	<path class="st2" d="M78.3,74.7c-0.2,0.5,0.3,1.2-0.5,1.5C77.8,75.6,77.8,75.1,78.3,74.7z"/>
	<path class="st1" d="M49.4,64.8c-0.1,0.2-0.3,0.4-0.4,0.6C48.7,64.9,49.1,64.9,49.4,64.8z"/>
</g>
</svg>
