<svg xmlns="http://www.w3.org/2000/svg" viewBox="0 0 60 30">
  <rect width="60" height="30" fill="#B22234"/>
  <rect width="60" height="2.3" fill="#FFFFFF"/>
  <rect y="4.6" width="60" height="2.3" fill="#FFFFFF"/>
  <rect y="9.2" width="60" height="2.3" fill="#FFFFFF"/>
  <rect y="13.8" width="60" height="2.3" fill="#FFFFFF"/>
  <rect y="18.4" width="60" height="2.3" fill="#FFFFFF"/>
  <rect y="23" width="60" height="2.3" fill="#FFFFFF"/>
  <rect width="24" height="16.1" fill="#3C3B6E"/>
  <g fill="#FFFFFF">
    <circle cx="2" cy="2.3" r="0.8"/>
    <circle cx="4" cy="2.3" r="0.8"/>
    <circle cx="6" cy="2.3" r="0.8"/>
    <circle cx="8" cy="2.3" r="0.8"/>
    <circle cx="10" cy="2.3" r="0.8"/>
    <circle cx="12" cy="2.3" r="0.8"/>
    <circle cx="14" cy="2.3" r="0.8"/>
    <circle cx="16" cy="2.3" r="0.8"/>
    <circle cx="18" cy="2.3" r="0.8"/>
    <circle cx="20" cy="2.3" r="0.8"/>
    <circle cx="22" cy="2.3" r="0.8"/>
    <circle cx="3" cy="4.6" r="0.8"/>
    <circle cx="5" cy="4.6" r="0.8"/>
    <circle cx="7" cy="4.6" r="0.8"/>
    <circle cx="9" cy="4.6" r="0.8"/>
    <circle cx="11" cy="4.6" r="0.8"/>
    <circle cx="13" cy="4.6" r="0.8"/>
    <circle cx="15" cy="4.6" r="0.8"/>
    <circle cx="17" cy="4.6" r="0.8"/>
    <circle cx="19" cy="4.6" r="0.8"/>
    <circle cx="21" cy="4.6" r="0.8"/>
  </g>
</svg>
